<?xml version="1.0" encoding="utf-8"?>
<!-- Generator: Adobe Illustrator 19.0.0, SVG Export Plug-In . SVG Version: 6.00 Build 0)  -->
<!DOCTYPE svg PUBLIC "-//W3C//DTD SVG 1.1//EN" "http://www.w3.org/Graphics/SVG/1.1/DTD/svg11.dtd">
<svg version="1.1" id="Layer_1" xmlns="http://www.w3.org/2000/svg" xmlns:xlink="http://www.w3.org/1999/xlink" x="0px" y="0px"
	 viewBox="-558 3.7 2200 595.3" enable-background="new -558 3.7 2200 595.3" xml:space="preserve">
<g>
	<g id="XMLID_1221_">
		<g id="XMLID_1239_">
			<rect id="XMLID_1255_" x="564.3" y="272.8" fill="#C7C6C6" width="25.7" height="131.6"/>
			<rect id="XMLID_1254_" x="596.6" y="327.1" fill="#C7C6C6" width="33.9" height="77.3"/>
			<rect id="XMLID_1253_" x="636.4" y="293.5" fill="#C7C6C6" width="22" height="110.9"/>
			<rect id="XMLID_1252_" x="664.6" y="359.9" fill="#C7C6C6" width="33.9" height="44.4"/>
			<rect id="XMLID_1251_" x="528.1" y="282" fill="#C7C6C6" width="33.9" height="122"/>
			<rect id="XMLID_1250_" x="746.9" y="291.9" fill="#C7C6C6" width="30.9" height="112.5"/>
			<rect id="XMLID_1249_" x="785.4" y="338.2" fill="#C7C6C6" width="40.5" height="66.1"/>
			<rect id="XMLID_1248_" x="703.1" y="299.8" fill="#C7C6C6" width="40.5" height="104.3"/>
			<rect id="XMLID_1247_" x="866.6" y="320.5" fill="#C7C6C6" width="25.7" height="83.9"/>
			<rect id="XMLID_1246_" x="898.9" y="339.9" fill="#C7C6C6" width="25" height="64.5"/>
			<rect id="XMLID_1245_" x="830.4" y="272.8" fill="#C7C6C6" width="33.9" height="130.9"/>
			<rect id="XMLID_1244_" x="1021.9" y="310.6" fill="#C7C6C6" width="30.9" height="93.8"/>
			<rect id="XMLID_1243_" x="1004.8" y="349.1" fill="#C7C6C6" width="40.5" height="55.3"/>
			<rect id="XMLID_1242_" x="960" y="317.2" fill="#C7C6C6" width="40.5" height="86.8"/>
			<rect id="XMLID_1241_" x="691.9" y="384.6" fill="#C7C6C6" width="33.9" height="17.8"/>
			<rect id="XMLID_1240_" x="921.9" y="365.5" fill="#C7C6C6" width="33.9" height="38.8"/>
		</g>
		<g id="XMLID_1222_">
			<rect id="XMLID_1238_" x="1093.9" y="271.8" fill="#C7C6C6" width="25.7" height="131.6"/>
			<rect id="XMLID_1237_" x="1125.8" y="326.1" fill="#C7C6C6" width="33.9" height="77.3"/>
			<rect id="XMLID_1236_" x="1166" y="292.5" fill="#C7C6C6" width="22" height="110.9"/>
			<rect id="XMLID_1235_" x="1194.3" y="359" fill="#C7C6C6" width="33.9" height="44.4"/>
			<rect id="XMLID_1234_" x="1057.4" y="281" fill="#C7C6C6" width="33.9" height="122"/>
			<rect id="XMLID_1233_" x="1276.2" y="291.2" fill="#C7C6C6" width="30.9" height="112.5"/>
			<rect id="XMLID_1232_" x="1314.6" y="337.3" fill="#C7C6C6" width="40.5" height="66.1"/>
			<rect id="XMLID_1231_" x="1232.4" y="298.8" fill="#C7C6C6" width="40.5" height="104.3"/>
			<rect id="XMLID_1230_" x="1396.2" y="319.5" fill="#C7C6C6" width="25.7" height="83.9"/>
			<rect id="XMLID_1229_" x="1428.1" y="338.9" fill="#C7C6C6" width="25" height="64.5"/>
			<rect id="XMLID_1228_" x="1359.7" y="271.8" fill="#C7C6C6" width="33.9" height="130.9"/>
			<rect id="XMLID_1227_" x="1551.2" y="309.6" fill="#C7C6C6" width="30.9" height="93.8"/>
			<rect id="XMLID_1226_" x="1534.1" y="348.4" fill="#C7C6C6" width="40.5" height="55.3"/>
			<rect id="XMLID_1225_" x="1489.6" y="316.2" fill="#C7C6C6" width="40.5" height="86.8"/>
			<rect id="XMLID_1224_" x="1221.2" y="383.6" fill="#C7C6C6" width="33.9" height="17.8"/>
			<rect id="XMLID_1223_" x="1451.2" y="364.9" fill="#C7C6C6" width="33.9" height="38.8"/>
		</g>
	</g>
	<g id="XMLID_1204_">
		<rect id="XMLID_1220_" x="1114.6" y="291.9" fill="#909091" width="28" height="131.6"/>
		<rect id="XMLID_1219_" x="1149.2" y="346.1" fill="#909091" width="36.5" height="77.3"/>
		<rect id="XMLID_1218_" x="1192.3" y="312.6" fill="#909091" width="23.7" height="110.9"/>
		<rect id="XMLID_1217_" x="1222.9" y="379" fill="#909091" width="36.5" height="44.4"/>
		<rect id="XMLID_1216_" x="1075.2" y="301.1" fill="#909091" width="36.5" height="122"/>
		<rect id="XMLID_1215_" x="1311.4" y="311.3" fill="#909091" width="33.6" height="112.5"/>
		<rect id="XMLID_1214_" x="1353.1" y="357.3" fill="#909091" width="43.7" height="66.1"/>
		<rect id="XMLID_1213_" x="1264.3" y="318.8" fill="#909091" width="43.7" height="104.3"/>
		<rect id="XMLID_1212_" x="1441" y="339.6" fill="#909091" width="28" height="83.9"/>
		<rect id="XMLID_1211_" x="1475.5" y="359" fill="#909091" width="27" height="64.5"/>
		<rect id="XMLID_1210_" x="1401.8" y="291.9" fill="#909091" width="36.5" height="130.9"/>
		<rect id="XMLID_1209_" x="1608.4" y="329.7" fill="#909091" width="33.6" height="93.8"/>
		<rect id="XMLID_1208_" x="1590" y="368.5" fill="#909091" width="43.7" height="55.3"/>
		<rect id="XMLID_1207_" x="1541.9" y="336.3" fill="#909091" width="43.7" height="86.8"/>
		<rect id="XMLID_1206_" x="1252.1" y="403.7" fill="#909091" width="36.5" height="17.8"/>
		<rect id="XMLID_1205_" x="1500.5" y="384.9" fill="#909091" width="36.5" height="38.8"/>
	</g>
	<g id="XMLID_1256_">
		<rect id="XMLID_1272_" x="579.5" y="286.9" fill="#909091" width="25.7" height="131.6"/>
		<rect id="XMLID_1271_" x="611.7" y="340.9" fill="#909091" width="33.9" height="77.3"/>
		<rect id="XMLID_1270_" x="651.5" y="307.3" fill="#909091" width="22" height="110.9"/>
		<rect id="XMLID_1269_" x="679.8" y="373.8" fill="#909091" width="33.9" height="44.4"/>
		<rect id="XMLID_1268_" x="543.3" y="295.8" fill="#909091" width="33.9" height="122"/>
		<rect id="XMLID_1267_" x="762" y="306" fill="#909091" width="30.9" height="112.5"/>
		<rect id="XMLID_1266_" x="800.5" y="352.4" fill="#909091" width="40.5" height="66.1"/>
		<rect id="XMLID_1265_" x="718.3" y="313.6" fill="#909091" width="40.5" height="104.3"/>
		<rect id="XMLID_1264_" x="881.8" y="334.3" fill="#909091" width="25.7" height="83.9"/>
		<rect id="XMLID_1263_" x="914" y="353.7" fill="#909091" width="25" height="64.5"/>
		<rect id="XMLID_1262_" x="845.6" y="286.9" fill="#909091" width="33.9" height="130.9"/>
		<rect id="XMLID_1261_" x="1037" y="324.8" fill="#909091" width="30.9" height="93.8"/>
		<rect id="XMLID_1260_" x="1019.9" y="363.2" fill="#909091" width="40.5" height="55.3"/>
		<rect id="XMLID_1259_" x="975.2" y="331" fill="#909091" width="40.5" height="86.8"/>
		<rect id="XMLID_1258_" x="707.1" y="398.4" fill="#909091" width="33.9" height="17.8"/>
		<rect id="XMLID_1257_" x="937" y="379.7" fill="#909091" width="33.9" height="38.8"/>
	</g>
	<g id="XMLID_1143_">
		<g id="XMLID_1161_">
			<rect id="XMLID_1177_" x="-521.9" y="263.9" fill="#C7C6C6" width="25.7" height="131.6"/>
			<rect id="XMLID_1176_" x="-489.6" y="318.2" fill="#C7C6C6" width="33.9" height="77.3"/>
			<rect id="XMLID_1175_" x="-449.5" y="284.6" fill="#C7C6C6" width="22" height="110.9"/>
			<rect id="XMLID_1174_" x="-421.2" y="351.1" fill="#C7C6C6" width="33.9" height="44.4"/>
			<rect id="XMLID_1173_" x="-558" y="273.1" fill="#C7C6C6" width="33.9" height="122"/>
			<rect id="XMLID_1172_" x="-339.3" y="283" fill="#C7C6C6" width="30.9" height="112.5"/>
			<rect id="XMLID_1171_" x="-300.8" y="329.4" fill="#C7C6C6" width="40.5" height="66.1"/>
			<rect id="XMLID_1170_" x="-383" y="290.9" fill="#C7C6C6" width="40.5" height="104.3"/>
			<rect id="XMLID_1169_" x="-219.2" y="311.6" fill="#C7C6C6" width="25.7" height="83.9"/>
			<rect id="XMLID_1168_" x="-187.3" y="331" fill="#C7C6C6" width="25" height="64.5"/>
			<rect id="XMLID_1167_" x="-255.7" y="263.9" fill="#C7C6C6" width="33.9" height="130.9"/>
			<rect id="XMLID_1166_" x="-64.3" y="301.7" fill="#C7C6C6" width="30.9" height="93.8"/>
			<rect id="XMLID_1165_" x="-81.4" y="340.2" fill="#C7C6C6" width="40.5" height="55.3"/>
			<rect id="XMLID_1164_" x="-125.8" y="308.3" fill="#C7C6C6" width="40.5" height="86.8"/>
			<rect id="XMLID_1163_" x="-394.2" y="375.7" fill="#C7C6C6" width="33.9" height="17.8"/>
			<rect id="XMLID_1162_" x="-164.3" y="356.7" fill="#C7C6C6" width="33.9" height="38.8"/>
		</g>
		<g id="XMLID_1144_">
			<rect id="XMLID_1160_" x="7.7" y="262.9" fill="#C7C6C6" width="25.7" height="131.6"/>
			<rect id="XMLID_1159_" x="39.6" y="317.2" fill="#C7C6C6" width="33.9" height="77.3"/>
			<rect id="XMLID_1158_" x="79.8" y="283.6" fill="#C7C6C6" width="22" height="110.9"/>
			<rect id="XMLID_1157_" x="108.1" y="350.1" fill="#C7C6C6" width="33.9" height="44.4"/>
			<rect id="XMLID_1156_" x="-28.8" y="272.1" fill="#C7C6C6" width="33.9" height="122"/>
			<rect id="XMLID_1155_" x="190" y="282.3" fill="#C7C6C6" width="30.9" height="112.5"/>
			<rect id="XMLID_1154_" x="228.5" y="328.4" fill="#C7C6C6" width="40.5" height="66.1"/>
			<rect id="XMLID_1153_" x="146.2" y="289.9" fill="#C7C6C6" width="40.5" height="104.3"/>
			<rect id="XMLID_1152_" x="310" y="310.6" fill="#C7C6C6" width="25.7" height="83.9"/>
			<rect id="XMLID_1151_" x="341.9" y="330" fill="#C7C6C6" width="25" height="64.5"/>
			<rect id="XMLID_1150_" x="273.5" y="262.9" fill="#C7C6C6" width="33.9" height="130.9"/>
			<rect id="XMLID_1149_" x="465.3" y="300.7" fill="#C7C6C6" width="30.9" height="93.8"/>
			<rect id="XMLID_1148_" x="447.9" y="339.6" fill="#C7C6C6" width="40.5" height="55.3"/>
			<rect id="XMLID_1147_" x="403.5" y="307.3" fill="#C7C6C6" width="40.5" height="86.8"/>
			<rect id="XMLID_1146_" x="135.4" y="374.8" fill="#C7C6C6" width="33.9" height="17.8"/>
			<rect id="XMLID_1145_" x="365.3" y="356" fill="#C7C6C6" width="33.9" height="38.8"/>
		</g>
	</g>
	<g id="XMLID_1126_">
		<rect id="XMLID_1142_" x="-462" y="284" fill="#909091" width="25.7" height="131.6"/>
		<rect id="XMLID_1141_" x="-430.1" y="338.2" fill="#909091" width="33.9" height="77.3"/>
		<rect id="XMLID_1140_" x="-390" y="304.7" fill="#909091" width="22" height="110.9"/>
		<rect id="XMLID_1139_" x="-361.7" y="371.1" fill="#909091" width="33.9" height="44.4"/>
		<rect id="XMLID_1138_" x="-498.5" y="293.2" fill="#909091" width="33.9" height="122"/>
		<rect id="XMLID_1137_" x="-279.8" y="303" fill="#909091" width="30.9" height="112.5"/>
		<rect id="XMLID_1136_" x="-240.9" y="349.4" fill="#909091" width="40.5" height="66.1"/>
		<rect id="XMLID_1135_" x="-323.2" y="310.9" fill="#909091" width="40.5" height="104.3"/>
		<rect id="XMLID_1134_" x="-159.7" y="331.7" fill="#909091" width="25.7" height="83.9"/>
		<rect id="XMLID_1133_" x="-127.5" y="351.1" fill="#909091" width="25" height="64.5"/>
		<rect id="XMLID_1132_" x="-195.9" y="284" fill="#909091" width="33.9" height="130.9"/>
		<rect id="XMLID_1131_" x="-4.4" y="321.8" fill="#909091" width="30.9" height="93.8"/>
		<rect id="XMLID_1130_" x="-21.9" y="360.3" fill="#909091" width="40.5" height="55.3"/>
		<rect id="XMLID_1129_" x="-66.3" y="328.4" fill="#909091" width="40.5" height="86.8"/>
		<rect id="XMLID_1128_" x="-334.4" y="395.8" fill="#909091" width="33.9" height="17.8"/>
		<rect id="XMLID_1127_" x="-104.4" y="376.7" fill="#909091" width="33.9" height="38.8"/>
	</g>
	<g id="XMLID_1109_">
		<rect id="XMLID_1125_" x="67.3" y="283" fill="#909091" width="25.7" height="131.6"/>
		<rect id="XMLID_1124_" x="99.5" y="337.3" fill="#909091" width="33.9" height="77.3"/>
		<rect id="XMLID_1123_" x="139.3" y="303.7" fill="#909091" width="22" height="110.9"/>
		<rect id="XMLID_1122_" x="167.9" y="370.1" fill="#909091" width="33.9" height="44.4"/>
		<rect id="XMLID_1121_" x="31.1" y="292.2" fill="#909091" width="33.9" height="122"/>
		<rect id="XMLID_1120_" x="249.8" y="302.4" fill="#909091" width="30.9" height="112.5"/>
		<rect id="XMLID_1119_" x="288.3" y="348.4" fill="#909091" width="40.5" height="66.1"/>
		<rect id="XMLID_1118_" x="206.1" y="309.9" fill="#909091" width="40.5" height="104.3"/>
		<rect id="XMLID_1117_" x="369.9" y="330.7" fill="#909091" width="25.7" height="83.9"/>
		<rect id="XMLID_1116_" x="401.8" y="350.1" fill="#909091" width="25" height="64.5"/>
		<rect id="XMLID_1115_" x="333.4" y="283" fill="#909091" width="33.9" height="130.9"/>
		<rect id="XMLID_1114_" x="524.8" y="320.8" fill="#909091" width="30.9" height="93.8"/>
		<rect id="XMLID_1113_" x="507.7" y="359.6" fill="#909091" width="40.5" height="55.3"/>
		<rect id="XMLID_1112_" x="463.3" y="327.4" fill="#909091" width="40.5" height="86.8"/>
		<rect id="XMLID_1111_" x="194.9" y="394.8" fill="#909091" width="33.9" height="17.8"/>
		<rect id="XMLID_1110_" x="424.8" y="376.1" fill="#909091" width="33.9" height="38.8"/>
	</g>
</g>
</svg>
