<?xml version="1.0" encoding="utf-8"?>
<!-- Generator: Adobe Illustrator 19.0.0, SVG Export Plug-In . SVG Version: 6.00 Build 0)  -->
<svg version="1.1" id="Layer_1" xmlns="http://www.w3.org/2000/svg" xmlns:xlink="http://www.w3.org/1999/xlink" x="0px" y="0px"
	 viewBox="0 0 841.9 595.3" style="enable-background:new 0 0 841.9 595.3;" xml:space="preserve">
<style type="text/css">
	.st0{fill:#FDFDFD;}
</style>
<polygon id="XMLID_342_" class="st0" points="464.2,300.5 466.9,295.8 497.2,295.8 495,300.5 "/>
<polygon id="XMLID_341_" class="st0" points="525.8,300.5 528.4,295.8 558.8,295.8 556.6,300.5 "/>
<polygon id="XMLID_340_" class="st0" points="587.3,300.5 589.9,295.8 620.2,295.8 618,300.5 "/>
<polygon id="XMLID_339_" class="st0" points="648.6,300.5 651.2,295.8 681.5,295.8 679.3,300.5 "/>
<polygon id="XMLID_338_" class="st0" points="709.7,300.5 712.3,295.8 742.7,295.8 740.5,300.5 "/>
<polygon id="XMLID_337_" class="st0" points="770.9,300.5 773.5,295.8 803.8,295.8 801.6,300.5 "/>
<polygon id="XMLID_1011_" class="st0" points="38.2,299.8 40.8,295.2 71.1,295.2 68.9,299.8 "/>
<polygon id="XMLID_1010_" class="st0" points="99.6,299.8 102.2,295.2 132.5,295.2 130.3,299.8 "/>
<polygon id="XMLID_1009_" class="st0" points="161.1,299.8 163.8,295.2 194.1,295.2 191.9,299.8 "/>
<polygon id="XMLID_1008_" class="st0" points="222.6,299.8 225.2,295.2 255.5,295.2 253.3,299.8 "/>
<polygon id="XMLID_1007_" class="st0" points="283.9,299.8 286.5,295.2 316.8,295.2 314.6,299.8 "/>
<polygon id="XMLID_1006_" class="st0" points="345,299.8 347.6,295.2 378,295.2 375.8,299.8 "/>
<polygon id="XMLID_1005_" class="st0" points="406.2,299.8 408.8,295.2 439.1,295.2 436.9,299.8 "/>
</svg>
