<?xml version="1.0" encoding="utf-8"?>
<!-- Generator: Adobe Illustrator 19.0.0, SVG Export Plug-In . SVG Version: 6.00 Build 0)  -->
<!DOCTYPE svg PUBLIC "-//W3C//DTD SVG 1.1//EN" "http://www.w3.org/Graphics/SVG/1.1/DTD/svg11.dtd">
<svg version="1.1" id="Layer_1" xmlns="http://www.w3.org/2000/svg" xmlns:xlink="http://www.w3.org/1999/xlink" x="0px" y="0px"
	 viewBox="121 3.7 841.9 595.3" enable-background="new 121 3.7 841.9 595.3" xml:space="preserve">
<g>
	<path id="XMLID_1069_" fill="#3D3D3D" d="M646.1,420.4c0,0-8.4,15.8-1.8,16.3c6.6,0.5,39.1,0.6,39.1,0.6s15.4-3.8,10-9.6
		c0,0-1.4-6.2-8.6-6.4c0,0-15,3.2-17.8,2.5c-2.9-0.6-2.7-6.4-2.7-6.4l-14.8-1.8L646.1,420.4z"/>
	<g id="XMLID_1057_">
		<circle id="XMLID_1068_" fill="#3D3D3D" cx="547.4" cy="440.2" r="31"/>
		<circle id="XMLID_1067_" fill="#F9FAE9" cx="547.4" cy="440.2" r="19.5"/>
		<circle id="XMLID_1066_" fill="#3D3D3D" cx="547.4" cy="440.2" r="13.4"/>
		<ellipse id="XMLID_1065_" fill="#8D8D8E" cx="530.5" cy="440.5" rx="1" ry="1"/>
		<ellipse id="XMLID_1064_" fill="#8D8D8E" cx="563.9" cy="440.5" rx="1" ry="1"/>
		<ellipse id="XMLID_1063_" fill="#8D8D8E" cx="547.4" cy="423.8" rx="1" ry="1"/>
		<ellipse id="XMLID_1062_" fill="#8D8D8E" cx="547.4" cy="457.1" rx="1" ry="1"/>
		
			<ellipse id="XMLID_1061_" transform="matrix(0.7071 -0.7071 0.7071 0.7071 -146.3169 504.1845)" fill="#8D8D8E" cx="535.4" cy="428.7" rx="1" ry="1"/>
		
			<ellipse id="XMLID_1060_" transform="matrix(0.7071 -0.7071 0.7071 0.7071 -156.0774 527.7144)" fill="#8D8D8E" cx="559" cy="452.3" rx="1" ry="1"/>
		
			<ellipse id="XMLID_1059_" transform="matrix(0.7071 0.7071 -0.7071 0.7071 467.0445 -269.7876)" fill="#8D8D8E" cx="559.2" cy="428.9" rx="1" ry="1"/>
		
			<ellipse id="XMLID_1058_" transform="matrix(0.7071 0.7071 -0.7071 0.7071 476.7899 -246.226)" fill="#8D8D8E" cx="535.6" cy="452.4" rx="1" ry="1"/>
	</g>
	<g id="XMLID_1036_">
		<circle id="XMLID_1047_" fill="#3D3D3D" cx="732.8" cy="440.2" r="31"/>
		<circle id="XMLID_1046_" fill="#F9FAE9" cx="732.8" cy="440.2" r="19.5"/>
		<circle id="XMLID_1045_" fill="#3D3D3D" cx="732.8" cy="440.2" r="13.4"/>
		<ellipse id="XMLID_1044_" fill="#8D8D8E" cx="715.8" cy="440.5" rx="1" ry="1"/>
		<ellipse id="XMLID_1043_" fill="#8D8D8E" cx="749.1" cy="440.5" rx="1" ry="1"/>
		<ellipse id="XMLID_1042_" fill="#8D8D8E" cx="732.8" cy="423.8" rx="1" ry="1"/>
		<ellipse id="XMLID_1041_" fill="#8D8D8E" cx="732.8" cy="457.1" rx="1" ry="1"/>
		
			<ellipse id="XMLID_1040_" transform="matrix(0.7071 -0.7071 0.7071 0.7071 -92.0398 635.1765)" fill="#8D8D8E" cx="720.7" cy="428.7" rx="1" ry="1"/>
		
			<ellipse id="XMLID_1039_" transform="matrix(0.7071 -0.7071 0.7071 0.7071 -101.8192 658.7521)" fill="#8D8D8E" cx="744.3" cy="452.3" rx="1" ry="1"/>
		
			<ellipse id="XMLID_1038_" transform="matrix(0.7071 0.7071 -0.7071 0.7071 521.3221 -400.7784)" fill="#8D8D8E" cx="744.4" cy="428.9" rx="1" ry="1"/>
		
			<ellipse id="XMLID_1037_" transform="matrix(0.7071 0.7071 -0.7071 0.7071 531.0676 -377.2168)" fill="#8D8D8E" cx="720.9" cy="452.4" rx="1" ry="1"/>
	</g>
	<g id="XMLID_1_">
		<polygon id="XMLID_1056_" fill="#DD4A22" points="522,406.9 512.6,406.9 505.5,415.3 505.5,422.5 		"/>
		<polygon id="XMLID_1055_" fill="#F9FAE9" points="542.3,395 551.4,386 595,384.2 		"/>
		<path id="XMLID_1054_" fill="#3D3D3D" d="M551.4,388.2c0,0-7.1,0.6-6.9-4.9v-11c0,0-1.2-4.1,7.8-3.6l83.5,0.8c0,0,8.9-0.6,0,8
			l-5.9,8.8L551.4,388.2z"/>
		<path id="XMLID_1053_" fill="#F9FAE9" d="M675.1,363.2c0,0-3.5-2.2,5.4-6.2l11.7-5.5l20.7,53.8l1.9,4.3l-10.6,11
			c0,0-4.7,7.3-6.7,12.1l-3,6.2l-83.7,0.5V436l63.7-1.1C674.8,434.9,713.8,420.7,675.1,363.2z"/>
		<g id="XMLID_1049_">
			<g>
				<defs>
					<path id="SVGID_1_" d="M615.1,441.8c0,0,51.7-60.1,0-58.8c-51.7,1.3-87.6,17.4-87.6,17.4s-38.3,37.5-36.5,41.5
						C492.9,445.8,615.1,441.8,615.1,441.8z"/>
				</defs>
				<clipPath id="SVGID_2_">
					<use xlink:href="#SVGID_1_"  overflow="visible"/>
				</clipPath>
				<path id="XMLID_1052_" clip-path="url(#SVGID_2_)" fill="#6C88BC" d="M615.1,441.8c0,0,51.7-60.1,0-58.8
					c-51.7,1.3-87.6,17.4-87.6,17.4s-38.3,37.5-36.5,41.5C492.9,445.8,615.1,441.8,615.1,441.8z"/>
			</g>
			<g>
				<defs>
					<path id="SVGID_3_" d="M615.1,441.8c0,0,51.7-60.1,0-58.8c-51.7,1.3-87.6,17.4-87.6,17.4s-38.3,37.5-36.5,41.5
						C492.9,445.8,615.1,441.8,615.1,441.8z"/>
				</defs>
				<clipPath id="SVGID_4_">
					<use xlink:href="#SVGID_3_"  overflow="visible"/>
				</clipPath>
				<path id="XMLID_1051_" clip-path="url(#SVGID_4_)" fill="#F9FAE9" d="M628.3,426.9C623,429,497.9,429,497.9,429l21.8-22.2h3.8
					c0,0,117.9-3.3,117-5.9"/>
			</g>
		</g>
		<path id="XMLID_1048_" fill="#6C88BC" d="M693.2,351.6l4.9-1.9c0,0,21.1,53.3,27.4,54.8l2.3,2.3c0,0-10.1,1.4-12.8,4.4
			L693.2,351.6z"/>
		<path id="XMLID_1035_" fill="#6C88BC" d="M693.4,439.1h23.3c0,0,9.8-16.8,43.2-14.2l7.1-1.9c0,0-2.7-17.5-41.3-18.3l-12.8,4.4
			C712.9,409.1,693,430.8,693.4,439.1z"/>
		<path id="XMLID_1034_" fill="#6C88BC" d="M692.4,351.6l1-5.2l8.4,2.7l-3.2-23.2l-6.2,5.1c0,0-11.1-2.1-13.7,0.7l-1.4,4.7v7.2
			c0,0,1.4,4.7,4.3,4.7l3.6,1.6l1.1,4.7L692.4,351.6z"/>
		<path id="XMLID_1033_" fill="#DAE087" d="M698.5,325.7c0,0,1.7-2.1,3.2,0l3.3,21.6c0,0-0.1,2.5-3.3,1.6L698.5,325.7z"/>
		<polygon id="XMLID_1032_" fill="#3D3D3D" points="684.9,342.2 679.1,348.7 684.9,351.6 689.5,343.6 		"/>
		<path id="XMLID_1031_" fill="#E2DFA6" d="M671.2,343.8c0,0-0.5-6.4,1.8-7.8c0,0,8.1,3.2,10.1,2.7c0,0,4.2-1.6,6.4,1.7
			c0,0,4.9,6.5,3.4,7.5c0,0-4.8,3.4-6.1,3.2c-1.3-0.3-1.2,0.1-0.6-1.6c0,0,1-0.8,0-2.1c0,0-0.6-2.2-5.5-1
			C680.7,346.3,673.4,346.6,671.2,343.8z"/>
		<g id="XMLID_1017_">
			<path id="XMLID_1030_" fill="#E2DFA6" d="M625.5,286.3v-1.9c0,0,14.3,5.3,15,6.8l-0.8,2.9l-1.4,7.7l-6.5,0.5l-8.4-10L625.5,286.3
				z"/>
			<path id="XMLID_1029_" fill="#32472A" d="M597.6,370.9c0,0-12.6,1.7-13.7-5.8c0,0-4-20.1,0-24.8c0,0,5.2-12.6,11.1-31.8
				c0,0,11-22.7,18.9-22.4c0,0,4.3-1.8,6.2,0l2.5-0.8c0,0,4.3-0.6,6.9,5.1c0,0,5.1,3.6,4.9,5.4c0,0-1.9,3.6,0,5.4
				c0,0,4.1-1.4,5.6-5.1c0,0,3.2,2.1,3.2,5.4c0,0-1.1,3.6,0,6.5c1.1,2.9-1.1,4,0,6.2c0,0,35.3,22,38.9,22.7l-7.9,10.1
				c0,0-21.6-6.2-26.7-11.5c-5.1-5.4-16.5-5.8-15.3-2.1c1.2,3.6,0.6,5.5,0,8c-0.6,2.5-1.6,7.3-2.7,7.4
				C628.2,348.9,597.6,370.9,597.6,370.9z"/>
			<path id="XMLID_1028_" fill="#172F4E" d="M644.8,420c-1.1-0.5,0.4-10.6,3.6-13.1c0,0,0.7-4-1.8-7.6c0,0,0.8-8.5,0.1-10.8
				c0,0,0.4-12.1-3.6-13.1c0,0-0.7-0.7-7.2,0c0,0-25.2,0-38.2-4.7c0,0,11.1-15.6,17-16.8c0,0,10.1-3,11.5-4.8c0,0,5-1.1,12.1,0
				c0,0,23.7-1.4,24.9,6.7c0,0,3.8,2.4,7.7,38c0,0-2.9,6.1,0,12.2c0,0,0.4,10.6-1.4,11.4C669.3,417.6,652.4,423,644.8,420z"/>
			<path id="XMLID_1027_" fill="#282828" d="M636.1,331c0,0-13.1-4-19.6-9.8c-6.4-5.8-8.5-14.4-8.5-14.4s2.9,16.1,8.7,18.7
				c5.9,2.6,15.2,6.9,15.2,6.9L636.1,331z"/>
			<path id="XMLID_1026_" fill="#282828" d="M643,312.9c0,0-9.1-13.9-16.7-15.7c0,0,7.6,4.9,8.9,7.3s5.4,5.9,6.7,8.4
				c1.2,2.5,1,1.1,1,1.1V312.9L643,312.9z"/>
			<path id="XMLID_1025_" fill="#282828" d="M626.1,349.3c0,0-10.6,2.1-15.4,0c0,0,3,0.8,7.7,0l7.7-0.5l2.3,0.2L626.1,349.3z"/>
			<path id="XMLID_1024_" fill="#282828" d="M583.9,340.2c0,0,4-4.3,7.4-4.3c0,0-2.7,0.6-4.2,2.1l-3.8,3.3L583.9,340.2z"/>
			<path id="XMLID_1023_" fill="#282828" d="M629.3,290.5c0,0-4.6,2.8-7.7,2.1c0,0-3.8-1.6-6-1c0,0-3,1.9-5.5,1.1
				c0,0-5.3,1.4-6.6,2.4c-1.3,1-1.1,0.6-1.1,0.6l2-1.6c0,0,3-1.4,4.5-1.6c0,0,0.9-0.5,1.7-0.4c0,0,1,0.7,4.2-0.5
				c0,0,1.2-0.7,1.9-0.7c0,0,4.7,0.7,5.3,1.2C622.1,292.2,622.5,292.9,629.3,290.5z"/>
			<g id="XMLID_1018_">
				<path id="XMLID_1022_" fill="#6C88BC" d="M622.5,285.4c0,0-3.8-3.8-4.5-7.2c0,0-1.3-8.2,2.3-17.1c0,0,3.8-9.8,17.9-10.1
					c0,0,11.7,0.3,16.3,6.7c0,0,6,7.3,6.3,13c0,0,1.7,16.1-1.4,21c0,0-2.9,8.9-8.4,8.7L622.5,285.4z"/>
				<path id="XMLID_1021_" fill="#3D3D3D" d="M660.4,287.8c0,0-5.7,2.1-20-8.4c0,0,0.5-10.4,1.4-10.1c0,0,14-1,18.8,1.4
					C660.6,270.7,662.1,282,660.4,287.8z"/>
				<path id="XMLID_1020_" fill="#437678" d="M648.5,296.3c0,0,4.6-3.1,5.1-6.2l0.9,0.4C654.5,290.5,650.2,296.3,648.5,296.3z"/>
				<path id="XMLID_1019_" fill="#437678" d="M656.9,291.5c0,0-4.3,5.8-6,5.8c0,0,4.6-3.1,5.1-6.2"/>
			</g>
		</g>
	</g>
</g>
</svg>
